<svg xmlns="http://www.w3.org/2000/svg" width="1600" height="900" viewBox="0 0 1600 900" role="img" aria-label="The Human Body: Muscular-Skeletal System infographic">
  <rect width="1600" height="900" fill="#F8FAFC"/>
  <rect x="0" y="0" width="1600" height="88" fill="#111827"/>
  <rect x="0" y="88" width="1600" height="14" fill="#FCD116"/>
  <rect x="0" y="102" width="1600" height="12" fill="#D90000"/>
  <text x="70" y="57" font-family="Arial, sans-serif" font-size="30" font-weight="700" fill="white">Uganda P7 visual summary</text>
  <text x="70" y="170" text-anchor="start" font-family="Arial, sans-serif" font-size="48" font-weight="700" fill="#111827"><tspan x="70" dy="0">The Human</tspan><tspan x="70" dy="55">Body:</tspan><tspan x="70" dy="55">Muscular-</tspan></text>
  
  <circle cx="800" cy="300" r="55" fill="#FCD116" stroke="#111827" stroke-width="5"/>
  <rect x="745" y="365" width="110" height="210" rx="50" fill="white" stroke="#111827" stroke-width="6"/>
  <line x1="745" y1="430" x2="560" y2="360" stroke="#1B7F3A" stroke-width="14" stroke-linecap="round"/>
  <line x1="855" y1="430" x2="1040" y2="360" stroke="#1B7F3A" stroke-width="14" stroke-linecap="round"/>
  <line x1="770" y1="570" x2="650" y2="720" stroke="#D90000" stroke-width="14" stroke-linecap="round"/>
  <line x1="830" y1="570" x2="950" y2="720" stroke="#D90000" stroke-width="14" stroke-linecap="round"/>
  <rect x="150" y="280" width="360" height="108" rx="18" fill="white" stroke="#CBD5E1" stroke-width="4"/>
  <text x="172" y="316" text-anchor="start" font-family="Arial, sans-serif" font-size="23" font-weight="700" fill="#111827"><tspan x="172" dy="0">Why Do We Have a Shape?</tspan></text>
  <rect x="1010" y="280" width="360" height="108" rx="18" fill="white" stroke="#CBD5E1" stroke-width="4"/>
  <text x="1032" y="316" text-anchor="start" font-family="Arial, sans-serif" font-size="23" font-weight="700" fill="#111827"><tspan x="1032" dy="0">Exploring the Skeleton</tspan></text>
  <rect x="130" y="610" width="360" height="108" rx="18" fill="white" stroke="#CBD5E1" stroke-width="4"/>
  <text x="152" y="646" text-anchor="start" font-family="Arial, sans-serif" font-size="23" font-weight="700" fill="#111827"><tspan x="152" dy="0">Components of the System</tspan></text>
  <rect x="1040" y="610" width="360" height="108" rx="18" fill="white" stroke="#CBD5E1" stroke-width="4"/>
  <text x="1062" y="646" text-anchor="start" font-family="Arial, sans-serif" font-size="23" font-weight="700" fill="#111827"><tspan x="1062" dy="0">How They Work Together</tspan></text>
  <rect x="500" y="745" width="600" height="72" rx="18" fill="white" stroke="#CBD5E1" stroke-width="4"/>
  <text x="800" y="773" text-anchor="middle" font-family="Arial, sans-serif" font-size="24" font-weight="700" fill="#111827"><tspan x="800" dy="0">Reviewing Our System</tspan></text>
  <text x="180" y="820" text-anchor="start" font-family="Arial, sans-serif" font-size="20" font-weight="400" fill="#475569"><tspan x="180" dy="0">• The body has a firm framework.</tspan></text>
  <text x="593" y="820" text-anchor="start" font-family="Arial, sans-serif" font-size="20" font-weight="400" fill="#475569"><tspan x="593" dy="0">• The skeleton is the bony framework</tspan><tspan x="593" dy="23">of the body.</tspan></text>
  <text x="1006" y="820" text-anchor="start" font-family="Arial, sans-serif" font-size="20" font-weight="400" fill="#475569"><tspan x="1006" dy="0">• Bones: The hard framework.</tspan></text>
</svg>