<svg xmlns="http://www.w3.org/2000/svg" width="1600" height="900" viewBox="0 0 1600 900" role="img" aria-label="3.4 Final Review and Assessment infographic">
  <rect width="1600" height="900" fill="#F8FAFC"/>
  <rect x="0" y="0" width="1600" height="88" fill="#111827"/>
  <rect x="0" y="88" width="1600" height="14" fill="#FCD116"/>
  <rect x="0" y="102" width="1600" height="12" fill="#D90000"/>
  <text x="70" y="57" font-family="Arial, sans-serif" font-size="30" font-weight="700" fill="white">Uganda P7 visual summary</text>
  <text x="70" y="170" text-anchor="start" font-family="Arial, sans-serif" font-size="48" font-weight="700" fill="#111827"><tspan x="70" dy="0">3.4 Final</tspan><tspan x="70" dy="55">Review and</tspan><tspan x="70" dy="55">Assessment</tspan></text>
  <rect x="150" y="260" width="300" height="170" rx="18" fill="white" stroke="#111827" stroke-width="5"/>
  <rect x="150" y="260" width="300" height="48" rx="16" fill="#FCD116"/>
  <text x="168" y="291" text-anchor="start" font-family="Arial, sans-serif" font-size="20" font-weight="700" fill="black"><tspan x="168" dy="0">Step 1</tspan></text>
  <text x="172" y="338" text-anchor="start" font-family="Arial, sans-serif" font-size="23" font-weight="700" fill="#111827"><tspan x="172" dy="0">Looking Back at Term 1</tspan></text>
  <rect x="550" y="260" width="300" height="170" rx="18" fill="white" stroke="#111827" stroke-width="5"/>
  <rect x="550" y="260" width="300" height="48" rx="16" fill="#1B7F3A"/>
  <text x="568" y="291" text-anchor="start" font-family="Arial, sans-serif" font-size="20" font-weight="700" fill="white"><tspan x="568" dy="0">Step 2</tspan></text>
  <text x="572" y="338" text-anchor="start" font-family="Arial, sans-serif" font-size="23" font-weight="700" fill="#111827"><tspan x="572" dy="0">What is a Portfolio?</tspan></text>
  <rect x="950" y="260" width="300" height="170" rx="18" fill="white" stroke="#111827" stroke-width="5"/>
  <rect x="950" y="260" width="300" height="48" rx="16" fill="#1D4ED8"/>
  <text x="968" y="291" text-anchor="start" font-family="Arial, sans-serif" font-size="20" font-weight="700" fill="white"><tspan x="968" dy="0">Step 3</tspan></text>
  <text x="972" y="338" text-anchor="start" font-family="Arial, sans-serif" font-size="23" font-weight="700" fill="#111827"><tspan x="972" dy="0">Selecting Your Best</tspan><tspan x="972" dy="26">Work</tspan></text>
  <rect x="350" y="570" width="300" height="170" rx="18" fill="white" stroke="#111827" stroke-width="5"/>
  <rect x="350" y="570" width="300" height="48" rx="16" fill="#D90000"/>
  <text x="368" y="601" text-anchor="start" font-family="Arial, sans-serif" font-size="20" font-weight="700" fill="white"><tspan x="368" dy="0">Step 4</tspan></text>
  <text x="372" y="648" text-anchor="start" font-family="Arial, sans-serif" font-size="23" font-weight="700" fill="#111827"><tspan x="372" dy="0">Creating the Portfolio</tspan><tspan x="372" dy="26">Structure</tspan></text>
  <rect x="750" y="570" width="300" height="170" rx="18" fill="white" stroke="#111827" stroke-width="5"/>
  <rect x="750" y="570" width="300" height="48" rx="16" fill="#111827"/>
  <text x="768" y="601" text-anchor="start" font-family="Arial, sans-serif" font-size="20" font-weight="700" fill="white"><tspan x="768" dy="0">Step 5</tspan></text>
  <text x="772" y="648" text-anchor="start" font-family="Arial, sans-serif" font-size="23" font-weight="700" fill="#111827"><tspan x="772" dy="0">Share Your Success!</tspan></text>
  <text x="160" y="785" text-anchor="start" font-family="Arial, sans-serif" font-size="20" font-weight="400" fill="#475569"><tspan x="160" dy="0">• Review the topics we covered</tspan></text>
  <text x="586" y="785" text-anchor="start" font-family="Arial, sans-serif" font-size="20" font-weight="400" fill="#475569"><tspan x="586" dy="0">• A collection of your best work</tspan></text>
  <text x="1012" y="785" text-anchor="start" font-family="Arial, sans-serif" font-size="20" font-weight="400" fill="#475569"><tspan x="1012" dy="0">• Read your compositions from Week 1 to</tspan><tspan x="1012" dy="23">Week 11</tspan></text>
</svg>