<svg xmlns="http://www.w3.org/2000/svg" width="1600" height="900" viewBox="0 0 1600 900" role="img" aria-label="4.0 Patterns and Sequences (Final Review) infographic">
  <rect width="1600" height="900" fill="#F8FAFC"/>
  <rect x="0" y="0" width="1600" height="88" fill="#111827"/>
  <rect x="0" y="88" width="1600" height="14" fill="#FCD116"/>
  <rect x="0" y="102" width="1600" height="12" fill="#D90000"/>
  <text x="70" y="57" font-family="Arial, sans-serif" font-size="30" font-weight="700" fill="white">Uganda P7 visual summary</text>
  <text x="70" y="170" text-anchor="start" font-family="Arial, sans-serif" font-size="48" font-weight="700" fill="#111827"><tspan x="70" dy="0">4.0</tspan><tspan x="70" dy="55">Patterns</tspan><tspan x="70" dy="55">and</tspan></text>
  <rect x="170" y="270" width="1260" height="360" rx="30" fill="#FFF7E0" stroke="#111827" stroke-width="7"/>
  <rect x="235" y="355" width="175" height="145" rx="14" fill="white" stroke="#1B7F3A" stroke-width="5"/>
  <text x="322" y="398" text-anchor="middle" font-family="Arial, sans-serif" font-size="21" font-weight="700" fill="#111827"><tspan x="322" dy="0">Setting Up Our</tspan><tspan x="322" dy="24">Math Market</tspan></text>
  <path d="M417 427 L465 427" stroke="#D90000" stroke-width="8" stroke-linecap="round"/>
  <path d="M465 427 l-18 -14 m18 14 l-18 14" stroke="#D90000" stroke-width="8" fill="none" stroke-linecap="round"/>
  <rect x="480" y="355" width="175" height="145" rx="14" fill="white" stroke="#1B7F3A" stroke-width="5"/>
  <text x="567" y="398" text-anchor="middle" font-family="Arial, sans-serif" font-size="21" font-weight="700" fill="#111827"><tspan x="567" dy="0">Mapping the</tspan><tspan x="567" dy="24">Market Data</tspan></text>
  <path d="M662 427 L710 427" stroke="#D90000" stroke-width="8" stroke-linecap="round"/>
  <path d="M710 427 l-18 -14 m18 14 l-18 14" stroke="#D90000" stroke-width="8" fill="none" stroke-linecap="round"/>
  <rect x="725" y="355" width="175" height="145" rx="14" fill="white" stroke="#1B7F3A" stroke-width="5"/>
  <text x="812" y="398" text-anchor="middle" font-family="Arial, sans-serif" font-size="21" font-weight="700" fill="#111827"><tspan x="812" dy="0">Calculating</tspan><tspan x="812" dy="24">the Market</tspan><tspan x="812" dy="24">Profit</tspan></text>
  <path d="M907 427 L955 427" stroke="#D90000" stroke-width="8" stroke-linecap="round"/>
  <path d="M955 427 l-18 -14 m18 14 l-18 14" stroke="#D90000" stroke-width="8" fill="none" stroke-linecap="round"/>
  <rect x="970" y="355" width="175" height="145" rx="14" fill="white" stroke="#1B7F3A" stroke-width="5"/>
  <text x="1057" y="398" text-anchor="middle" font-family="Arial, sans-serif" font-size="21" font-weight="700" fill="#111827"><tspan x="1057" dy="0">The</tspan><tspan x="1057" dy="24">Inspector&#x27;s</tspan><tspan x="1057" dy="24">Challenge</tspan></text>
  <path d="M1152 427 L1200 427" stroke="#D90000" stroke-width="8" stroke-linecap="round"/>
  <path d="M1200 427 l-18 -14 m18 14 l-18 14" stroke="#D90000" stroke-width="8" fill="none" stroke-linecap="round"/>
  <rect x="1215" y="355" width="175" height="145" rx="14" fill="white" stroke="#1B7F3A" stroke-width="5"/>
  <text x="1302" y="398" text-anchor="middle" font-family="Arial, sans-serif" font-size="21" font-weight="700" fill="#111827"><tspan x="1302" dy="0">Mastery</tspan><tspan x="1302" dy="24">Presentation</tspan></text>
  <rect x="410" y="660" width="780" height="78" rx="18" fill="white" stroke="#CBD5E1" stroke-width="4"/>
  <text x="800" y="688" text-anchor="middle" font-family="Arial, sans-serif" font-size="24" font-weight="700" fill="#111827"><tspan x="800" dy="0">Concrete objects → diagram → calculation → challenge →</tspan><tspan x="800" dy="27">presentation</tspan></text>
  <text x="180" y="780" text-anchor="start" font-family="Arial, sans-serif" font-size="20" font-weight="400" fill="#475569"><tspan x="180" dy="0">• Use stones to represent customers.</tspan></text>
  <text x="593" y="780" text-anchor="start" font-family="Arial, sans-serif" font-size="20" font-weight="400" fill="#475569"><tspan x="593" dy="0">• Draw a Venn diagram of the</tspan><tspan x="593" dy="23">inventory.</tspan></text>
  <text x="1006" y="780" text-anchor="start" font-family="Arial, sans-serif" font-size="20" font-weight="400" fill="#475569"><tspan x="1006" dy="0">• Multiply items by price.</tspan></text>
</svg>